<svg width="540" height="300" viewBox="0 0 540 300" fill="none" xmlns="http://www.w3.org/2000/svg">
<path d="M26.2805 120V54.84H0.480469V36H75.7205V54.84H50.0405V120H26.2805ZM84.5724 120V36H122.972C130.652 36 137.252 37.24 142.772 39.72C148.372 42.2 152.692 45.8 155.732 50.52C158.772 55.16 160.292 60.68 160.292 67.08C160.292 73.4 158.772 78.88 155.732 83.52C152.692 88.08 148.372 91.6 142.772 94.08C137.252 96.48 130.652 97.68 122.972 97.68H97.7724L108.332 87.72V120H84.5724ZM136.532 120L115.652 89.4H140.972L161.972 120H136.532ZM108.332 90.24L97.7724 79.32H121.532C126.492 79.32 130.172 78.24 132.572 76.08C135.052 73.92 136.292 70.92 136.292 67.08C136.292 63.16 135.052 60.12 132.572 57.96C130.172 55.8 126.492 54.72 121.532 54.72H97.7724L108.332 43.8V90.24ZM173.4 120V36H197.16V120H173.4ZM239.63 120L203.75 36H229.43L259.67 108.72H244.55L275.51 36H299.03L263.03 120H239.63ZM303.947 120V36H327.707V120H303.947Z" fill="#FCFCFC"/>
<path d="M248.32 270L285.4 186H308.8L346 270H321.28L292.24 197.64H301.6L272.56 270H248.32ZM268.6 253.68L274.72 236.16H315.76L321.88 253.68H268.6ZM408.896 186H432.656V270H408.896V186ZM376.496 270H352.736V186H376.496V270ZM410.576 237.24H374.816V217.56H410.576V237.24ZM470.656 251.4L469.336 224.76L505.456 186H531.616L495.616 225L482.416 238.8L470.656 251.4ZM449.416 270V186H472.936V270H449.416ZM505.816 270L478.456 235.32L493.936 218.76L533.416 270H505.816Z" fill="#FD999B"/>
<path d="M440 152.5H200" stroke="black" stroke-width="4"/>
</svg>
